<svg xmlns="http://www.w3.org/2000/svg" width="57.006" height="57.271" viewBox="0 0 57.006 57.271"><defs><style>.a{fill:none;stroke:#eaeaea;stroke-linecap:round;stroke-miterlimit:10;stroke-width:2px;}</style></defs><g transform="translate(1 2.432)"><path class="a" d="M235.4,480.868l15.3,15.039H197.142V442.083l14.248,14.512" transform="translate(-197.142 -442.069)"/><path class="a" d="M212.661,479.77v21.636h21.9Z" transform="translate(-203.426 -457.33)"/><ellipse class="a" cx="5.543" cy="5.542" rx="5.543" ry="5.542" transform="translate(30.698 11.356)"/><g transform="translate(19.36 0)"><path class="a" d="M261.3,468.2c-1.227,0-2.4-.04-3.577.012a2.075,2.075,0,0,0-1.927,1.939c-.053,1.093-.022,2.191-.008,3.287a.371.371,0,0,1-.2.39,17.016,17.016,0,0,1-4.96,2.024.444.444,0,0,1-.343-.119c-.763-.753-1.5-1.538-2.276-2.274a2.088,2.088,0,0,0-2.891-.02c-.8.736-1.532,1.534-2.305,2.294a.444.444,0,0,1-.342.117,16.8,16.8,0,0,1-4.928-2.008.393.393,0,0,1-.212-.415c.026-1.06.061-2.123.015-3.181a2.138,2.138,0,0,0-2.189-2.051c-1.038,0-2.076.01-3.113,0a.405.405,0,0,1-.293-.165,16.4,16.4,0,0,1-2.045-4.986.4.4,0,0,1,.1-.314c.756-.761,1.542-1.492,2.28-2.27a2.128,2.128,0,0,0-.011-2.977c-.741-.774-1.527-1.506-2.282-2.268a.44.44,0,0,1-.108-.349,16.185,16.185,0,0,1,2.039-4.95.478.478,0,0,1,.352-.173c1.06-.006,2.123.044,3.182,0a2.138,2.138,0,0,0,2.082-2.2c.006-1.038-.008-2.076,0-3.113a.373.373,0,0,1,.139-.274,16.436,16.436,0,0,1,5.05-2.068.367.367,0,0,1,.28.1c.759.758,1.493,1.542,2.268,2.282a2.117,2.117,0,0,0,2.923.029c.793-.739,1.538-1.528,2.289-2.31a.369.369,0,0,1,.419-.123,17.257,17.257,0,0,1,4.831,1.976.462.462,0,0,1,.265.49c-.032,1.06-.055,2.123-.013,3.181a2.127,2.127,0,0,0,2.091,2c1.061.015,2.123-.005,3.184.006a.44.44,0,0,1,.323.17,16.326,16.326,0,0,1,2.042,4.986.4.4,0,0,1-.1.312c-.756.761-1.542,1.492-2.279,2.271a2.1,2.1,0,0,0-.024,2.92c.749.814,1.55,1.581,2.322,2.374a.335.335,0,0,1,.091.254A16.479,16.479,0,0,1,261.3,468.2Z" transform="translate(-229.675 -442.059)"/></g><line class="a" y2="3.958" transform="translate(9.565 49.551)"/><line class="a" y2="3.958" transform="translate(19.261 49.551)"/><line class="a" y2="3.958" transform="translate(28.562 49.551)"/><line class="a" y2="3.958" transform="translate(37.961 49.551)"/></g></svg>