<svg xmlns="http://www.w3.org/2000/svg" width="55.356" height="59.509" viewBox="0 0 55.356 59.509"><defs><style>.a,.b{fill:none;stroke:#eaeaea;stroke-linecap:round;stroke-miterlimit:10;stroke-width:2px;}.b{stroke-linejoin:round;}</style></defs><g transform="translate(1469.497 53.295)"><path class="a" d="M-1436.189.313v4.9h45.419V-39.492l-12.691-12.8h-32.647V-31.71" transform="translate(-24.372 0)"/><path class="a" d="M-1443.063,55.892a12.941,12.941,0,0,1,.38,3.121A12.907,12.907,0,0,1-1455.59,71.92,12.907,12.907,0,0,1-1468.5,59.013a12.907,12.907,0,0,1,12.907-12.907,12.848,12.848,0,0,1,6.63,1.831" transform="translate(0 -74.229)"/><path class="a" d="M-1437.638,73.548l4.041,4.649,10.993-9.78" transform="translate(-21.863 -91.059)"/><line class="a" x2="20.341" transform="translate(-1452.555 -41.839)"/><line class="a" x2="13.563" transform="translate(-1436.219 -27.339)"/><line class="a" x2="13.563" transform="translate(-1436.219 -23.663)"/><line class="a" x2="13.4" transform="translate(-1436.056 -19.742)"/><circle class="a" cx="2.611" cy="2.611" r="2.611" transform="translate(-1427.877 -5.831)"/><path class="a" d="M-1367.353,149.557h9.313" transform="translate(-70.498 -152.267)"/><path class="b" d="M-1309.49-51.963v12.736h12.736" transform="translate(-118.387 -0.251)"/></g></svg>