<svg xmlns="http://www.w3.org/2000/svg" width="15.506" height="15.506" viewBox="0 0 15.506 15.506"><defs><style>.a{fill:#414141;}</style></defs><path class="a" d="M10.887,15.506H4.619A4.624,4.624,0,0,1,0,10.887V4.619A4.624,4.624,0,0,1,4.619,0h6.267a4.624,4.624,0,0,1,4.619,4.619v6.267A4.624,4.624,0,0,1,10.887,15.506ZM4.619,1.56A3.063,3.063,0,0,0,1.56,4.619v6.267a3.063,3.063,0,0,0,3.059,3.059h6.267a3.063,3.063,0,0,0,3.059-3.059V4.619A3.063,3.063,0,0,0,10.887,1.56ZM7.894,11.9a4.01,4.01,0,1,1,4.01-4.01A4.015,4.015,0,0,1,7.894,11.9Zm0-6.461a2.45,2.45,0,1,0,2.45,2.45A2.453,2.453,0,0,0,7.894,5.443Zm3.877-.71a.961.961,0,1,1,.961-.961A.962.962,0,0,1,11.771,4.734Z"/></svg>