<svg xmlns="http://www.w3.org/2000/svg" width="72.237" height="66.386" viewBox="0 0 72.237 66.386"><defs><style>.a{fill:none;stroke:#eaeaea;stroke-miterlimit:10;stroke-width:2px;}</style></defs><g transform="translate(1 1)"><path class="a" d="M-559.183-65.8h-28.361V-85.531a3.755,3.755,0,0,1,4.042-3.756c3.483.287,7.955,2.1,7.955,9.517v4.1h16.364" transform="translate(587.544 129.56)"/><path class="a" d="M-408.969-75.669H-392.6v-4.1c0-7.417,4.472-9.23,7.955-9.517a3.755,3.755,0,0,1,4.042,3.756V-65.8h-28.361" transform="translate(436.151 129.56)"/><path class="a" d="M-534.448-136.813s17.48-13.9,39.348,0" transform="translate(542.53 175.081)"/><path class="a" d="M-508.732-31.739v-1.884a3.819,3.819,0,0,1,3.819-3.819h8.155a3.819,3.819,0,0,1,3.819,3.819v1.153" transform="translate(520.728 85.597)"/><path class="a" d="M-404.979-31.739v-1.884a3.819,3.819,0,0,1,3.819-3.819H-393a3.819,3.819,0,0,1,3.819,3.819v1.153" transform="translate(432.768 85.597)"/><rect class="a" width="3.847" height="37.593" rx="1" transform="translate(59.848 26.794)"/><path class="a" d="M-221.016-241.852h-15.36a.764.764,0,0,1-.722-1.012l3.432-9.977a.764.764,0,0,1,.722-.515h8.364a.764.764,0,0,1,.719.507l3.564,9.977A.764.764,0,0,1-221.016-241.852Z" transform="translate(290.478 268.646)"/><line class="a" y2="2.362" transform="translate(55.259 28.818)"/><ellipse class="a" cx="2.025" cy="2.025" rx="2.025" ry="2.025" transform="translate(53.199 31.195)"/><rect class="a" width="24.297" height="17.818" rx="4" transform="translate(15.641 0)"/><path class="a" d="M-449.985-317.04h-6.152a1.451,1.451,0,0,1-1.451-1.451v-7.749a1.451,1.451,0,0,1,1.451-1.451h12.9a1.451,1.451,0,0,1,1.451,1.451v7.749a1.451,1.451,0,0,1-1.451,1.451h-1.282" transform="translate(477.369 331.665)"/></g></svg>