<svg xmlns="http://www.w3.org/2000/svg" width="14.877" height="18.581" viewBox="0 0 14.877 18.581"><defs><style>.a{fill:#414141;fill-rule:evenodd;}</style></defs><path class="a" d="M165.929,133.643c-5.224,0-7.877,3.621-7.877,6.657a5.873,5.873,0,0,0,.2,1.6,3.527,3.527,0,0,0,2.058,2.481.369.369,0,0,0,.544-.262c.061-.192.171-.656.232-.858a.5.5,0,0,0-.151-.6,2.887,2.887,0,0,1-.605-1.11,3.661,3.661,0,0,1-.131-.988,5.15,5.15,0,0,1,5.437-5.114c2.955,0,4.589,1.745,4.589,4.085a9.584,9.584,0,0,1-.2,1.977c-.464,2.148-1.674,3.7-3.3,3.7a1.669,1.669,0,0,1-1.745-2.058c.161-.635.393-1.3.6-1.947a6.846,6.846,0,0,0,.393-1.836,1.445,1.445,0,0,0-1.5-1.6c-1.18,0-2.128,1.19-2.128,2.763a4.354,4.354,0,0,0,.07.787,3.893,3.893,0,0,0,.283.908s-1.21,4.952-1.412,5.82a11.489,11.489,0,0,0-.03,4.054c.01.121.181.151.262.06a11.293,11.293,0,0,0,2-3.49c.121-.484.777-2.945.777-2.945a3.148,3.148,0,0,0,2.693,1.341c2.874,0,5.013-2.088,5.709-5.124a9.67,9.67,0,0,0,.242-2.2C172.929,136.578,170.155,133.643,165.929,133.643Z" transform="translate(-158.052 -133.643)"/></svg>