<svg xmlns="http://www.w3.org/2000/svg" width="16.829" height="14.104" viewBox="0 0 16.829 14.104"><defs><style>.a{fill:#414141;}</style></defs><path class="a" d="M14.171,1.123A3.4,3.4,0,0,0,11.651,0,3.508,3.508,0,0,0,8.2,3.56a3.646,3.646,0,0,0,.089.811A9.7,9.7,0,0,1,1.171.65,3.641,3.641,0,0,0,.7,2.442,3.588,3.588,0,0,0,2.24,5.4,3.375,3.375,0,0,1,.675,4.961V5A3.535,3.535,0,0,0,3.446,8.5a3.274,3.274,0,0,1-.91.126,3.346,3.346,0,0,1-.65-.063,3.469,3.469,0,0,0,3.225,2.471A6.8,6.8,0,0,1,.824,12.554,6.88,6.88,0,0,1,0,12.505a9.573,9.573,0,0,0,5.293,1.6c6.351,0,9.824-5.424,9.824-10.13,0-.155,0-.31-.009-.461A7.107,7.107,0,0,0,16.829,1.67a6.733,6.733,0,0,1-1.982.56A3.551,3.551,0,0,0,16.365.261,6.766,6.766,0,0,1,14.171,1.123Z"/></svg>