<svg xmlns="http://www.w3.org/2000/svg" width="20.669" height="15.507" viewBox="0 0 20.669 15.507"><defs><style>.a{fill:#414141;}</style></defs><path class="a" d="M321.1,410.808a2.851,2.851,0,0,0-2.071-.932c-2.893-.224-7.231-.224-7.231-.224h-.01s-4.339,0-7.231.224a2.852,2.852,0,0,0-2.071.932,4.979,4.979,0,0,0-.821,2.19,35.519,35.519,0,0,0-.207,3.568v1.672a35.506,35.506,0,0,0,.207,3.568,4.96,4.96,0,0,0,.821,2.188,3.38,3.38,0,0,0,2.279.943c1.653.169,7.028.222,7.028.222s4.343-.008,7.236-.229a2.864,2.864,0,0,0,2.071-.934,4.968,4.968,0,0,0,.821-2.188,35.518,35.518,0,0,0,.207-3.568v-1.672a35.52,35.52,0,0,0-.207-3.568A4.969,4.969,0,0,0,321.1,410.808ZM309.21,421.281v-7.753l6.461,3.877Z" transform="translate(-301.457 -409.651)"/></svg>